<svg width="154" height="48" viewBox="0 0 154 48" fill="none" xmlns="http://www.w3.org/2000/svg">
<g clip-path="url(#clip0_529_562)">
<path d="M62.7278 13.2495C66.6414 13.2495 69.4009 16.1295 69.4009 19.9039C69.4009 23.6962 66.6054 26.5584 62.7278 26.5584C58.8502 26.5584 56.0547 23.7141 56.0547 19.9039C56.0547 16.0938 58.8321 13.2495 62.7278 13.2495ZM57.6779 19.9039C57.6779 22.8376 59.7519 25.1631 62.7278 25.1631C65.6495 25.1631 67.7777 22.8734 67.7777 19.9039C67.7777 16.9524 65.6675 14.6448 62.7097 14.6448C59.806 14.6448 57.6779 16.9524 57.6779 19.9039ZM73.3503 26.2364H71.8353V13.5715H73.7471L81.1416 24.0898H81.1776V13.5715H82.6926V26.2364H80.7809L73.3864 15.7181H73.3503V26.2364ZM87.3875 26.2364H85.8726V13.5715H89.7502C92.4735 13.5715 94.1327 14.77 94.1327 17.0418C94.1327 19.3494 92.3833 20.5479 90.0207 20.5479H87.3875V26.2364ZM87.3875 14.9668V19.1526H90.0207C91.5537 19.1526 92.5096 18.3656 92.5096 17.0597C92.5096 15.7539 91.5717 14.9668 90.0207 14.9668H87.3875ZM96.3111 23.1059V17.8647H97.7179V22.9449C97.7179 24.215 98.295 25.1631 99.6477 25.1631C101.397 25.1631 102.263 23.9109 102.263 22.0148V17.8647H103.67V24.376C103.67 24.8948 103.742 25.7892 103.742 26.2364H102.407C102.407 25.6461 102.371 25.4135 102.371 24.859H102.335C101.902 25.7892 100.802 26.451 99.5034 26.451C97.4113 26.451 96.3111 25.1273 96.3111 23.1059ZM107.667 22.0505C107.667 23.8572 108.894 25.1631 110.661 25.1631C112.465 25.1631 113.655 23.8215 113.655 22.0505C113.655 20.2796 112.483 18.938 110.643 18.938C108.876 18.938 107.667 20.2796 107.667 22.0505ZM106.261 12.7129H107.667V19.0811H107.703C108.479 18.1688 109.525 17.65 110.733 17.65C113.385 17.65 115.17 19.5104 115.17 22.0505C115.17 24.5012 113.367 26.451 110.95 26.451C109.525 26.451 108.263 25.7713 107.703 24.7516H107.667V26.2364H106.261V12.7129ZM118.891 12.7129V26.2364H117.484V12.7129H118.891ZM122.52 13.5715C123.079 13.5715 123.548 14.0187 123.548 14.5912C123.548 15.1815 123.116 15.6108 122.52 15.6108C121.925 15.6108 121.492 15.1815 121.492 14.5912C121.492 14.0187 121.961 13.5715 122.52 13.5715ZM123.224 17.8647V26.2364H121.817V17.8647H123.224ZM129.919 17.65C131.146 17.65 132.3 18.0615 133.147 18.9738L132.029 19.9576C131.434 19.2421 130.749 18.938 129.901 18.938C128.152 18.938 127.051 20.1723 127.051 22.0505C127.051 23.8036 128.224 25.1631 129.901 25.1631C130.821 25.1631 131.524 24.8411 132.047 24.1256L133.093 25.1094C132.282 26.0396 131.127 26.451 129.901 26.451C127.304 26.451 125.537 24.6443 125.537 22.0505C125.537 19.4925 127.322 17.65 129.919 17.65ZM135.554 13.5715C136.113 13.5715 136.582 14.0187 136.582 14.5912C136.582 15.1815 136.149 15.6108 135.554 15.6108C134.959 15.6108 134.526 15.1815 134.526 14.5912C134.526 14.0187 134.995 13.5715 135.554 13.5715ZM136.257 17.8647V26.2364H134.851V17.8647H136.257ZM139.778 19.0453H137.939V17.8647H139.778V15.4856H141.185V17.8647H143.674V19.0453H141.185V23.5174C141.185 24.859 141.636 25.1631 142.448 25.1631C142.862 25.1631 143.331 25.0736 143.692 24.8769L143.746 26.1469C143.241 26.3616 142.628 26.451 142.105 26.451C140.482 26.451 139.778 25.8071 139.778 23.732V19.0453ZM144.243 17.8647H145.884L148.499 24.4297H148.536L151.042 17.8647H152.575L148.445 28.2935C147.76 30.0287 146.984 30.5295 145.686 30.5295C145.217 30.5295 144.802 30.4759 144.423 30.3149L144.604 29.0985C144.892 29.2237 145.217 29.2416 145.596 29.2416C146.299 29.2416 146.768 28.9196 147.111 28.0073L147.742 26.29L144.243 17.8647Z" fill="#FEFAE0"/>
<path d="M57.7807 32.3418C58.412 32.3418 58.917 32.5326 59.2837 32.8963L58.9049 33.2899C58.6104 32.9798 58.1835 32.8069 57.7447 32.8069C56.7647 32.8069 56.0313 33.5522 56.0313 34.5599C56.0313 35.5736 56.7587 36.313 57.7928 36.313C58.1535 36.313 58.5562 36.2116 58.8508 36.0685V34.7746H57.8709V34.3095H59.3558V36.3845C58.8568 36.6529 58.3158 36.7781 57.7627 36.7781C56.4401 36.7781 55.4902 35.8717 55.4902 34.5599C55.4902 33.2779 56.4581 32.3418 57.7807 32.3418ZM62.2733 36.6707H61.7683V32.4491H62.9286C64.131 32.4491 64.5518 32.8665 64.5518 33.6059C64.5518 34.2022 64.1851 34.6136 63.4877 34.7269L64.6961 36.6707H64.0769L62.9226 34.7746H62.2733V36.6707ZM62.2733 34.3095H62.8745C63.7943 34.3095 64.0107 34.0173 64.0107 33.6119C64.0107 33.1348 63.6921 32.9142 63.0128 32.9142H62.2733V34.3095ZM68.7742 32.3418C70.0787 32.3418 70.9985 33.3018 70.9985 34.5599C70.9985 35.824 70.0667 36.7781 68.7742 36.7781C67.4816 36.7781 66.5498 35.83 66.5498 34.5599C66.5498 33.2899 67.4756 32.3418 68.7742 32.3418ZM67.0909 34.5599C67.0909 35.5378 67.7822 36.313 68.7742 36.313C69.7481 36.313 70.4575 35.5497 70.4575 34.5599C70.4575 33.5761 69.7541 32.8069 68.7682 32.8069C67.8003 32.8069 67.0909 33.5761 67.0909 34.5599ZM73.9143 36.6707L72.6698 32.4491H73.2289L74.1968 35.9552H74.2088L75.2549 32.4491H75.82L76.86 35.9552H76.8721L77.858 32.4491H78.387L77.1366 36.6707H76.5895L75.5374 33.0931H75.5254L74.4673 36.6707H73.9143ZM82.7468 32.4491H83.39L84.5864 34.3572L85.8188 32.4491H86.426L84.8389 34.8521V36.6707H84.3339V34.8521L82.7468 32.4491ZM90.2299 32.3418C91.5345 32.3418 92.4543 33.3018 92.4543 34.5599C92.4543 35.824 91.5225 36.7781 90.2299 36.7781C88.9374 36.7781 88.0056 35.83 88.0056 34.5599C88.0056 33.2899 88.9314 32.3418 90.2299 32.3418ZM88.5466 34.5599C88.5466 35.5378 89.238 36.313 90.2299 36.313C91.2039 36.313 91.9132 35.5497 91.9132 34.5599C91.9132 33.5761 91.2099 32.8069 90.2239 32.8069C89.256 32.8069 88.5466 33.5761 88.5466 34.5599ZM94.6005 35.0727V32.4491H95.1055V34.9892C95.1055 35.83 95.4782 36.313 96.2057 36.313C96.9331 36.313 97.3058 35.824 97.3058 35.0131V32.4491H97.8108V35.0787C97.8108 36.1102 97.2577 36.7781 96.2057 36.7781C95.1536 36.7781 94.6005 36.1043 94.6005 35.0727ZM100.709 36.6707H100.204V32.4491H101.364C102.567 32.4491 102.988 32.8665 102.988 33.6059C102.988 34.2022 102.621 34.6136 101.923 34.7269L103.132 36.6707H102.513L101.358 34.7746H100.709V36.6707ZM100.709 34.3095H101.31C102.23 34.3095 102.447 34.0173 102.447 33.6119C102.447 33.1348 102.128 32.9142 101.449 32.9142H100.709V34.3095ZM109.544 36.6707H108.258V32.4491H109.556C110.416 32.4491 110.969 32.8129 110.969 33.4866C110.969 33.9696 110.681 34.3035 110.224 34.4407V34.4526C110.789 34.5063 111.186 34.9415 111.186 35.4901C111.186 36.2951 110.518 36.6707 109.544 36.6707ZM108.763 36.2056H109.641C110.182 36.2056 110.644 35.9612 110.644 35.4722C110.644 34.9654 110.254 34.703 109.634 34.703H108.763V36.2056ZM108.763 34.2379H109.484C110.115 34.2379 110.428 34.0233 110.428 33.5522C110.428 33.1289 110.115 32.9142 109.538 32.9142H108.763V34.2379ZM113.379 35.0727V32.4491H113.884V34.9892C113.884 35.83 114.257 36.313 114.984 36.313C115.712 36.313 116.084 35.824 116.084 35.0131V32.4491H116.589V35.0787C116.589 36.1102 116.036 36.7781 114.984 36.7781C113.932 36.7781 113.379 36.1043 113.379 35.0727ZM120.227 32.3418C120.702 32.3418 121.099 32.473 121.417 32.8367L121.002 33.1945C120.834 32.9261 120.534 32.8069 120.227 32.8069C119.692 32.8069 119.319 33.0812 119.319 33.5165C119.319 33.9279 119.59 34.1068 120.233 34.2976C121.207 34.5838 121.489 34.9415 121.489 35.5438C121.489 36.3011 120.858 36.7781 119.993 36.7781C119.409 36.7781 118.928 36.5574 118.682 36.1937L119.115 35.8419C119.301 36.146 119.644 36.313 120.023 36.313C120.497 36.313 120.948 36.0208 120.948 35.5796C120.948 35.0131 120.491 34.9475 119.776 34.703C119.049 34.4526 118.778 34.1127 118.778 33.5582C118.778 32.8248 119.391 32.3418 120.227 32.3418ZM124.181 32.4491V36.6707H123.676V32.4491H124.181ZM127.095 36.6707H126.59V32.4491H127.227L129.692 35.9552H129.704V32.4491H130.209V36.6707H129.572L127.107 33.1647H127.095V36.6707ZM132.622 36.6707V32.4491H135.297V32.9142H133.127V34.2379H135.153V34.703H133.127V36.2056H135.405V36.6707H132.622ZM138.783 32.3418C139.258 32.3418 139.654 32.473 139.973 32.8367L139.558 33.1945C139.39 32.9261 139.089 32.8069 138.783 32.8069C138.248 32.8069 137.875 33.0812 137.875 33.5165C137.875 33.9279 138.145 34.1068 138.789 34.2976C139.763 34.5838 140.045 34.9415 140.045 35.5438C140.045 36.3011 139.414 36.7781 138.548 36.7781C137.965 36.7781 137.484 36.5574 137.238 36.1937L137.67 35.8419C137.857 36.146 138.2 36.313 138.578 36.313C139.053 36.313 139.504 36.0208 139.504 35.5796C139.504 35.0131 139.047 34.9475 138.332 34.703C137.604 34.4526 137.334 34.1127 137.334 33.5582C137.334 32.8248 137.947 32.3418 138.783 32.3418ZM143.476 32.3418C143.951 32.3418 144.347 32.473 144.666 32.8367L144.251 33.1945C144.083 32.9261 143.782 32.8069 143.476 32.8069C142.941 32.8069 142.568 33.0812 142.568 33.5165C142.568 33.9279 142.839 34.1068 143.482 34.2976C144.456 34.5838 144.738 34.9415 144.738 35.5438C144.738 36.3011 144.107 36.7781 143.241 36.7781C142.658 36.7781 142.177 36.5574 141.931 36.1937L142.364 35.8419C142.55 36.146 142.893 36.313 143.271 36.313C143.746 36.313 144.197 36.0208 144.197 35.5796C144.197 35.0131 143.74 34.9475 143.025 34.703C142.297 34.4526 142.027 34.1127 142.027 33.5582C142.027 32.8248 142.64 32.3418 143.476 32.3418Z" fill="#FEFAE0"/>
<path fill-rule="evenodd" clip-rule="evenodd" d="M45.0053 11.3292H43.5775C43.7759 11.6273 43.9652 11.9255 44.1486 12.2236H45.5373C45.366 11.9255 45.1916 11.6273 45.0053 11.3292ZM46.9952 28.0248C46.9381 28.323 46.8779 28.6211 46.8088 28.9193H48.0382C48.1043 28.6251 48.1645 28.3269 48.2186 28.0248H46.9952ZM42.2489 38.1615C41.9994 38.4596 41.7409 38.7578 41.4763 39.0559C38.6213 42.186 34.9412 44.4629 30.8514 45.6298C26.7617 46.7967 22.4245 46.8075 18.3289 45.6608C14.2332 44.5139 10.542 42.2552 7.67122 39.1391C4.80047 36.0233 2.86436 32.1737 2.0811 28.0248H0.857701C1.65987 32.5073 3.73861 36.6681 6.84845 40.0165C9.95826 43.3646 13.9692 45.7601 18.4076 46.9202C22.8459 48.0802 27.5263 47.9559 31.8957 46.5624C36.2653 45.1689 40.1414 42.5641 43.0665 39.0559C43.309 38.7637 43.5465 38.4656 43.7789 38.1615H42.2489ZM45.1195 33.6894C44.9752 33.9935 44.8219 34.2917 44.6596 34.5839H46.0182C46.1685 34.2857 46.3188 33.9876 46.4481 33.6894H45.1195ZM48.1013 19.0807H46.8749C47.1761 20.4534 47.349 21.8506 47.3919 23.2547H48.5943C48.5561 21.8515 48.3914 20.4546 48.1013 19.0807ZM24.5471 3.31099e-06C18.2723 -0.00194189 12.2451 2.4289 7.75232 6.77366C3.25949 11.1184 0.656872 17.0329 0.5 23.2547H1.70236C1.8591 17.3492 4.33498 11.738 8.60233 7.61686C12.8697 3.49571 18.5911 1.1905 24.5471 1.19255C27.8051 1.19061 31.0258 1.88152 33.9917 3.21868C36.9576 4.55586 39.6001 6.5082 41.7409 8.9441H43.3099C41.06 6.15181 38.2053 3.89787 34.9572 2.34951C31.709 0.80115 28.1509 -0.00188172 24.5471 3.31099e-06ZM47.1875 15.8012H45.889C46.0032 16.0994 46.1084 16.3975 46.2106 16.6957H47.4731C47.3919 16.3975 47.2867 16.0994 47.1785 15.8012H47.1875Z" fill="#FEFAE0"/>
<path d="M44.3238 11.3291H27.582V12.2348H44.3238V11.3291Z" fill="#FEFAE0"/>
<path d="M47.064 15.8574H16.0156V16.7632H47.064V15.8574Z" fill="#FEFAE0"/>
<path fill-rule="evenodd" clip-rule="evenodd" d="M48.2147 28.2354C48.1599 28.5413 48.099 28.8432 48.0321 29.1411H9.32812V28.2354H48.2147Z" fill="#FEFAE0"/>
<path d="M48.5763 23.4065H0.5V19.1797H48.0953C48.3827 20.5715 48.5437 21.9861 48.5763 23.4065Z" fill="#FEFAE0"/>
<path fill-rule="evenodd" clip-rule="evenodd" d="M46.4207 33.9727C46.2837 34.2746 46.1376 34.5765 45.9854 34.8784H16.3281V33.9727H46.4207Z" fill="#FEFAE0"/>
<path fill-rule="evenodd" clip-rule="evenodd" d="M43.7243 38.501C43.4908 38.8089 43.2504 39.1108 43.0029 39.4067H23.0254V38.501H43.7243Z" fill="#FEFAE0"/>
</g>
<defs>
<clipPath id="clip0_529_562">
<rect width="153" height="48" fill="white" transform="translate(0.5)"/>
</clipPath>
</defs>
</svg>
