<svg width="40" height="40" viewBox="0 0 40 40" fill="none" xmlns="http://www.w3.org/2000/svg">
<path d="M21.1656 0C22.5014 1.92757 23.7188 3.93467 24.8112 6.01017C24.9719 5.98741 25.134 5.97589 25.2963 5.97572C25.9514 5.97586 26.5932 6.16064 27.1483 6.50891C27.7034 6.85718 28.1492 7.35486 28.4349 7.94497C29.9878 7.80595 31.5453 7.72365 33.1042 7.69823C34.0023 7.68427 34.9042 7.68986 35.8102 7.71313C32.3772 3.28348 27.1274 0.341244 21.1656 0ZM18.3386 0.0372435C18.2702 0.04283 18.2014 0.0465544 18.133 0.0526064C16.5633 3.26765 15.3353 6.44452 14.4577 9.57996C14.8341 9.8131 15.1627 10.1158 15.426 10.4719C17.5419 9.83125 19.6888 9.2983 21.8586 8.87513C21.9744 8.20206 22.2849 7.57776 22.7516 7.07953C21.4972 4.69874 20.0307 2.35053 18.3386 0.0372435ZM15.3433 0.51303C10.4938 1.66929 6.25148 4.59843 3.4493 8.72523C5.59615 9.21804 7.72156 9.80017 9.82 10.4701C10.1027 10.0887 10.4601 9.76904 10.8705 9.53066C11.2808 9.29228 11.7354 9.14019 12.2065 9.08369C12.9856 6.24248 14.0312 3.38311 15.3433 0.51303ZM34.4702 10.0185C32.5251 10.0059 30.6005 10.0855 28.6944 10.2513C28.5249 10.9874 28.1215 11.6487 27.5446 12.1358C28.1861 13.8622 28.7322 15.6226 29.1805 17.409C29.6362 17.4574 30.0779 17.5953 30.4803 17.8146C30.8828 18.034 31.2381 18.3306 31.526 18.6874C34.2223 17.8789 36.9683 17.2468 39.7465 16.795C39.3721 14.443 38.5785 12.1775 37.4037 10.1065C36.4209 10.0553 35.4432 10.025 34.4702 10.0185ZM2.20093 10.8388C1.19448 12.8003 0.520948 14.9158 0.207907 17.0985C3.13442 15.417 6.1107 13.9496 9.13814 12.7047C9.13782 12.7 9.13751 12.6954 9.13721 12.6907C6.88977 11.9729 4.57442 11.3616 2.20093 10.8388ZM22.2446 11.1572C20.175 11.5613 18.127 12.0694 16.1084 12.6796C16.1069 12.7192 16.1047 12.7587 16.1019 12.7983C19.7069 14.3271 23.1697 16.1723 26.4498 18.3122C26.6021 18.1721 26.7667 18.0459 26.9414 17.9351C26.5158 16.2483 25.9978 14.5863 25.3898 12.9566C25.3586 12.9576 25.3274 12.9582 25.2963 12.9584C24.6733 12.9582 24.0618 12.7909 23.5252 12.4741C22.9886 12.1573 22.5466 11.7024 22.2451 11.1568L22.2446 11.1572ZM10.0028 14.8541C6.61163 16.2531 3.27907 17.9463 0.00186055 19.9174C0.00186055 19.9392 0 19.9602 0 19.9821C0 25.2735 2.04326 30.0741 5.37953 33.6491C7.28246 31.9455 9.26796 30.3366 11.3288 28.8283C10.4544 24.4993 10.3274 20.0738 10.9005 15.5859C10.5627 15.394 10.2593 15.147 10.0028 14.855V14.8541ZM15.1753 14.9281C14.6395 15.5042 13.9249 15.8822 13.1474 16.0007C12.6581 19.8624 12.7279 23.6571 13.3837 27.3805C17.1781 24.8037 21.1567 22.6371 25.3242 20.9029C25.3242 20.8956 25.3242 20.8883 25.3242 20.881C25.3245 20.7112 25.3373 20.5416 25.3623 20.3736C22.1382 18.2537 18.7286 16.4311 15.1753 14.9281ZM39.9781 19.1152C37.3845 19.5445 34.8203 20.1366 32.3009 20.888C32.2999 21.3942 32.189 21.8941 31.9758 22.3531C34.1902 24.1642 36.2829 26.1194 38.2405 28.2059C39.4031 25.6206 40.0029 22.8172 40 19.9821C40 19.6916 39.9907 19.4025 39.9781 19.1152ZM26.1093 23.0859C21.8414 24.8694 17.7786 27.1282 13.9051 29.839C14.7516 33.2552 16.0991 36.6094 17.9651 39.898C18.6339 39.9655 19.313 40 20 40C22.7126 40 25.2963 39.46 27.6526 38.4851C28.44 33.6369 28.5949 28.9084 28.086 24.2953C27.3087 24.1294 26.6113 23.7027 26.1093 23.0859ZM30.3795 24.0449C30.8586 28.3512 30.7865 32.7459 30.1888 37.216C33.0145 35.5425 35.386 33.1996 37.0949 30.3935C35.0141 28.1166 32.7697 25.9952 30.3795 24.0463V24.0449ZM11.9098 31.2864C10.2423 32.544 8.62714 33.8696 7.06837 35.2598C9.38065 37.225 12.1109 38.6354 15.0507 39.3836C13.693 36.7319 12.6498 34.0299 11.9098 31.2864Z" fill="#BC6C25"/>
</svg>
